<?xml version="1.0" standalone="no"?>
<!DOCTYPE svg PUBLIC "-//W3C//DTD SVG 1.1//EN" "http://www.w3.org/Graphics/SVG/1.1/DTD/svg11.dtd" >
<svg xmlns="http://www.w3.org/2000/svg">
<metadata>Generated by IcoMoon</metadata>
<defs>
<font id="asFont" horiz-adv-x="512">
<font-face units-per-em="512" ascent="480" descent="-32" />
<missing-glyph horiz-adv-x="512" />
<glyph unicode="&#x20;" d="" horiz-adv-x="256" />
<glyph unicode="&#xe600;" d="M419.2 48c-9.6-6.4-22.4-6.4-32 3.2l-89.6 89.6c-19.2-9.6-41.6-16-67.2-16-80 0-144 64-144 140.8s64 140.8 144 140.8 144-64 144-140.8c0-38.4-16-73.6-41.6-99.2l86.4-83.2c6.4-12.8 6.4-25.6 0-35.2zM332.8 262.4c0 57.6-44.8 102.4-102.4 102.4s-102.4-44.8-102.4-102.4c0-54.4 44.8-99.2 102.4-99.2s102.4 44.8 102.4 99.2z" />
<glyph unicode="&#xe601;" d="M208 406.4c12.8-12.8 147.2-156.8 147.2-156.8 6.4-6.4 9.6-16 9.6-25.6s-3.2-19.2-9.6-25.6c0 0-134.4-140.8-147.2-156.8-12.8-12.8-38.4-16-54.4 0-16 16-16 35.2 0 51.2l124.8 128-121.6 131.2c-16 19.2-16 38.4 0 51.2 12.8 16 38.4 16 51.2 3.2z" />
<glyph unicode="&#xe602;" d="M304 406.4c-16-12.8-150.4-156.8-150.4-156.8-6.4-6.4-9.6-16-9.6-25.6s3.2-19.2 9.6-25.6c0 0 134.4-140.8 147.2-156.8s38.4-16 54.4 0 16 35.2 0 51.2l-121.6 131.2 124.8 128c16 19.2 16 38.4 0 51.2-16 16-41.6 16-54.4 3.2z" />
<glyph unicode="&#xe603;" d="M409.6 364.8c-3.2 3.2-12.8 3.2-16 0l-179.2-179.2c-3.2-3.2-12.8-3.2-16 0l-80 80c0 3.2-3.2 3.2-6.4 3.2s-6.4 0-9.6-3.2l-35.2-32c-3.2 0-3.2-3.2-3.2-6.4s0-6.4 3.2-9.6l80-83.2c3.2-3.2 12.8-12.8 16-16l35.2-35.2c3.2-3.2 12.8-3.2 16 0l230.4 230.4c3.2 3.2 3.2 12.8 0 16l-35.2 35.2z" />
<glyph unicode="&#xe604;" d="M112 307.2l144-166.4 144 169.6h-288z" />
<glyph unicode="&#xe605;" d="M400 140.8l-144 166.4-144-169.6 288 3.2z" />
<glyph unicode="&#xe606;" d="M412.8 44.8h-313.6c-12.8 0-25.6 9.6-25.6 25.6v288c0 12.8 9.6 25.6 25.6 25.6h25.6v-288h262.4v284.8h25.6c12.8 0 25.6-9.6 25.6-25.6v-288c-3.2-12.8-12.8-22.4-25.6-22.4zM339.2 403.2h25.6v-70.4h-25.6v70.4zM339.2 140.8h-22.4v48h25.6v-48zM316.8 284.8h25.6v-48h-25.6v48zM268.8 140.8h-25.6v48h22.4v-48zM243.2 284.8h22.4v-48h-22.4v48zM195.2 380.8h118.4v-48h-118.4v48zM195.2 140.8h-22.4v48h25.6v-48zM172.8 284.8h25.6v-48h-25.6v48zM147.2 403.2h25.6v-70.4h-25.6v70.4z" />
<glyph unicode="&#xe607;" d="M361.6 326.4c-6.4-6.4-16-6.4-22.4-3.2l-83.2 86.4-86.4-86.4c-3.2-6.4-12.8-3.2-19.2 3.2s-9.6 16-3.2 19.2l96 96c3.2 6.4 9.6 6.4 12.8 6.4s9.6 0 9.6-3.2l96-96c9.6-6.4 6.4-16 0-22.4zM150.4 121.6c6.4 6.4 16 6.4 22.4 3.2l83.2-86.4 86.4 86.4c6.4 6.4 16 3.2 22.4-3.2s6.4-16 3.2-22.4l-96-96c-6.4-3.2-12.8-3.2-16-3.2s-9.6 0-9.6 3.2l-96 96c-9.6 6.4-6.4 16 0 22.4z" />
<glyph unicode="&#xe608;" d="M32 48v32h448v-32h-448zM32 208h384v-32h-384v32zM32 400h352v-32h-352v32zM256 304h-224v32h224v-32zM352 240h-320v32h320v-32zM352 112h-320v32h320v-32z" />
<glyph unicode="&#xe609;" d="M32 48v32h448v-32h-448zM96 112v32h320v-32h-320zM64 208h384v-32h-384v32zM96 272h320v-32h-320v32zM160 304v32h192v-32h-192zM96 400h320v-32h-320v32z" />
<glyph unicode="&#xe60a;" d="M32 48v32h448v-32h-448zM160 144h320v-32h-320v32zM96 208h384v-32h-384v32zM160 272h320v-32h-320v32zM256 336h224v-32h-224v32zM128 400h352v-32h-352v32z" />
<glyph unicode="&#xe60b;" d="M288 384l-64-384h-64l64 384h-160v64h384v-64h-160z" />
<glyph unicode="&#xe60c;" d="M411.424 324.096v-255.776h-45.312v255.776h-87.424v55.616h223.392v-51.904h-90.656v-3.712zM145.92 68.32h-45.344v255.776h-90.656v55.616h223.424v-51.904h-87.424v-259.488z" />
<glyph unicode="&#xe60d;" d="M377.6 275.2v-153.6h-44.8v153.6h-67.2v51.2h176v-51.2h-64zM179.2 121.6h-44.8v153.6h-64v51.2h176v-51.2h-67.2v-153.6z" />
<glyph unicode="&#xe60e;" d="M88 0v28h336v-28h-336zM284 56h-56v336h-140v56h336v-56h-140v-336z" />
<glyph unicode="&#xe60f;" d="M400 224v-153.888h-44.8v153.888h-67.2v51.296h176v-51.296h-64zM179.2 70.112h-44.8v256.448h-86.4v51.328h220.8v-51.328h-89.6v-256.448z" />
<glyph unicode="&#xe610;" d="M448 224v-31.968h-160v-192.032h-64v192.032h-160v31.968h160v159.968h-160v64.032h384v-64.032h-160v-159.968h160z" />
<glyph unicode="&#xe611;" d="M364.352 187.072l-97.344 97.344c-2.848 2.848-6.88 3.808-11.008 3.232-4.128 0.576-8.16-0.384-11.008-3.232l-97.344-97.344c-5.376-5.376-4.48-14.944 1.952-21.376 6.464-6.464 16.032-7.328 21.408-1.984l84.992 84.992 84.992-84.992c5.376-5.376 14.944-4.512 21.376 1.984 6.464 6.432 7.36 16 1.984 21.376z" />
<glyph unicode="&#xe612;" d="M362.368 282.336c-6.432 6.464-16 7.328-21.376 1.952l-84.992-84.992-84.992 84.992c-5.376 5.376-14.944 4.512-21.408-1.952s-7.328-16.032-1.952-21.408l97.344-97.344c2.848-2.848 6.88-3.84 11.008-3.232 4.128-0.608 8.16 0.416 11.008 3.264l97.344 97.344c5.376 5.344 4.48 14.944-1.984 21.376z" />
<glyph unicode="&#xe613;" d="M128 384h256c17.696 0 32-14.336 32-32v-256c0-17.696-14.304-32-32-32h-256c-17.664 0-32 14.304-32 32v256c0 17.664 14.336 32 32 32z" />
<glyph unicode="&#xe614;" d="M480-32h-64c-17.696 0-32 14.304-32 32v64c0 17.696 14.304 32 32 32h64c17.696 0 32-14.304 32-32v-64c0-17.696-14.304-32-32-32zM480 160h-64c-17.696 0-32 14.304-32 32v64c0 17.664 14.304 32 32 32h64c17.696 0 32-14.336 32-32v-64c0-17.696-14.304-32-32-32zM480 352h-64c-17.696 0-32 14.336-32 32v64c0 17.664 14.304 32 32 32h64c17.696 0 32-14.336 32-32v-64c0-17.664-14.304-32-32-32zM288-32h-64c-17.664 0-32 14.304-32 32v64c0 17.696 14.336 32 32 32h64c17.696 0 32-14.304 32-32v-64c0-17.696-14.304-32-32-32zM288 160h-64c-17.664 0-32 14.304-32 32v64c0 17.664 14.336 32 32 32h64c17.696 0 32-14.336 32-32v-64c0-17.696-14.304-32-32-32zM288 352h-64c-17.664 0-32 14.336-32 32v64c0 17.664 14.336 32 32 32h64c17.696 0 32-14.336 32-32v-64c0-17.664-14.304-32-32-32zM96-32h-64c-17.664 0-32 14.304-32 32v64c0 17.696 14.336 32 32 32h64c17.664 0 32-14.304 32-32v-64c0-17.696-14.336-32-32-32zM96 160h-64c-17.664 0-32 14.304-32 32v64c0 17.664 14.336 32 32 32h64c17.664 0 32-14.336 32-32v-64c0-17.696-14.336-32-32-32zM96 352h-64c-17.664 0-32 14.336-32 32v64c0 17.664 14.336 32 32 32h64c17.664 0 32-14.336 32-32v-64c0-17.664-14.336-32-32-32z" />
<glyph unicode="&#xe615;" d="M487.616 160h-73.152c-13.472 0-24.384 11.456-24.384 25.6v76.8c0 14.112 10.912 25.6 24.384 25.6h73.152c13.44 0 24.384-11.456 24.384-25.6v-76.8c0-14.144-10.944-25.6-24.384-25.6zM292.576 160h-73.152c-13.472 0-24.384 11.456-24.384 25.6v76.8c0 14.112 10.912 25.6 24.384 25.6h73.12c13.504 0 24.384-11.456 24.384-25.6v-76.8c0-14.144-10.88-25.6-24.352-25.6zM97.536 160h-73.152c-13.472 0-24.384 11.456-24.384 25.6v76.8c0 14.144 10.912 25.6 24.384 25.6h73.152c13.44 0 24.384-11.456 24.384-25.6v-76.8c0-14.144-10.944-25.6-24.384-25.6z" />
<glyph unicode="&#xe616;" d="M294.4-32h-76.8c-14.144 0-25.6 10.944-25.6 24.384v73.152c0 13.472 11.456 24.384 25.6 24.384h76.8c14.112 0 25.6-10.912 25.6-24.384v-73.152c0-13.44-11.456-24.384-25.6-24.384zM294.4 163.072h-76.8c-14.144 0-25.6 10.912-25.6 24.352v73.152c0 13.44 11.456 24.384 25.6 24.384h76.8c14.112 0 25.6-10.912 25.6-24.384v-73.152c0-13.44-11.456-24.352-25.6-24.352zM294.4 358.080h-76.8c-14.144 0-25.6 10.944-25.6 24.384v73.152c0 13.472 11.456 24.384 25.6 24.384h76.8c14.144 0 25.6-10.912 25.6-24.384v-73.152c0-13.44-11.456-24.384-25.6-24.384z" />
<glyph unicode="&#xe617;" d="M440.224 39.744c-12.8-12.8-33.472-12.928-46.112-0.256l-265.696 265.728-1.088-190.144c-0.096-18.016-14.784-32.672-32.8-32.8-18.016-0.096-32.544 14.432-32.448 32.448l1.504 260.96c0.064 11.040 5.984 20.384 14.432 26.336 5.952 8.448 15.264 14.368 26.336 14.432l260.928 1.504c18.016 0.096 32.544-14.432 32.448-32.448s-14.816-32.704-32.8-32.8l-190.080-1.088 265.664-265.728c12.64-12.64 12.512-33.312-0.288-46.144z" />
<glyph unicode="&#xe618;" d="M465.12 241.888c-12.512-12.48-32.736-12.48-45.248 0l-131.872 131.872v-370.752c0-17.696-14.304-32-32-32-17.664 0-32 14.304-32 32v370.752l-131.872-131.872c-12.512-12.48-32.736-12.48-45.248 0-12.512 12.512-12.512 32.768 0 45.28l180.992 180.992c7.68 7.68 18.176 10.048 28.128 8.288 9.952 1.76 20.448-0.608 28.128-8.288l180.992-181.024c12.512-12.48 12.512-32.768 0-45.248z" />
<glyph unicode="&#xe619;" d="M414.368 86.656c-17.696 0-32 14.304-32 32v186.496l-262.112-262.176c-12.512-12.512-32.768-12.512-45.28 0s-12.512 32.768 0 45.248l262.144 262.176h-186.496c-17.664 0-32 14.336-32 32 0 17.696 14.336 32 32 32h256c10.848 0 19.936-5.76 25.76-14.016 8.256-5.792 14.016-14.912 14.016-25.76v-256c-0.032-17.664-14.336-31.968-32.032-31.968z" />
<glyph unicode="&#xe61a;" d="M479.968 191.2h-375.744l133.664-135.2c12.672-12.8 12.672-33.6 0-46.4s-33.216-12.8-45.856 0l-183.456 185.568c-7.776 7.872-10.176 18.656-8.416 28.832-1.76 10.176 0.64 20.96 8.416 28.8l183.456 185.6c12.672 12.8 33.184 12.8 45.856 0s12.672-33.6 0-46.4l-133.664-135.2h375.744c17.92 0 32.448-14.688 32.448-32.8s-14.528-32.8-32.448-32.8z" />
<glyph unicode="&#xe61b;" d="M460.384-31.488h-408.768c-28.224 0-51.104 25.408-51.104 56.768v397.44c0 31.328 22.88 56.768 51.104 56.768h408.736c28.192 0 51.104-25.44 51.104-56.768v-397.44c0-31.36-22.88-56.768-51.072-56.768zM460.384 422.72h-408.768v-397.44h408.736v397.44z" />
<glyph unicode="&#xe61c;" d="M500.544 195.872l-181.312-180.992c-12.512-12.512-32.8-12.512-45.312 0s-12.512 32.736 0 45.248l132.064 131.872h-371.328c-17.696 0-32.032 14.304-32.032 32 0 17.664 14.368 32 32.032 32h371.328l-132.064 131.872c-12.512 12.512-12.512 32.736 0 45.248s32.8 12.512 45.312 0l181.312-180.992c7.68-7.68 10.048-18.176 8.32-28.128 1.728-9.952-0.64-20.448-8.32-28.128z" />
<glyph unicode="&#xe61d;" d="M440.352 361.952l-265.28-265.28 190.016-1.248c18.016-0.128 32.672-14.816 32.768-32.768 0.128-18.016-14.368-32.512-32.384-32.416l-260.736 1.728c-11.040 0.096-20.384 5.984-26.336 14.432-8.448 5.984-14.4 15.296-14.432 26.336l-1.728 260.736c-0.128 18.016 14.4 32.512 32.384 32.384 18.016-0.128 32.704-14.816 32.8-32.8l1.248-189.984 265.28 265.312c12.672 12.64 33.312 12.512 46.112-0.288 12.8-12.832 12.928-33.472 0.288-46.144z" />
<glyph unicode="&#xe61e;" d="M470.4 160.128l-185.6-183.168c-7.84-7.776-18.624-10.144-28.8-8.416-10.176-1.76-20.96 0.64-28.8 8.416l-185.6 183.168c-12.8 12.672-12.8 33.152 0 45.792 12.8 12.672 33.6 12.672 46.4 0l135.2-133.408v375.104c0 17.856 14.688 32.384 32.8 32.384s32.8-14.496 32.8-32.384v-375.104l135.2 133.408c12.8 12.672 33.6 12.672 46.4 0 12.832-12.64 12.832-33.152 0-45.792z" />
<glyph unicode="&#xe61f;" d="M432.672 47.328c-5.792-8.288-14.912-14.016-25.76-14.016l-256.224 0.192c-17.696 0-32.032 14.368-32.032 32.064s14.304 32 32 32l186.656-0.16-262.592 262.592c-12.512 12.512-12.512 32.8-0.032 45.312 12.512 12.512 32.768 12.48 45.312-0.032l262.56-262.592-0.16 186.656c0 17.696 14.304 32 32 32s32.032-14.368 32.064-32.032l0.192-256.192c0-10.912-5.76-20.032-13.984-25.792z" />
<glyph unicode="&#xe620;" d="M16 32v384h480v-384h-480zM448 368h-96v-288h-192v288h-96v-288h384v288z" />
<glyph unicode="&#xe621;" d="M16 32v384h480v-384h-480zM448 368h-384v-48h384v-192h-384v-48h384v288z" />
<glyph unicode="&#xe622;" d="M16 32v384h480v-384h-480zM448 368h-384v-288h384v288zM424 104h-336v240h336v-240z" />
<glyph unicode="&#xe623;" d="M16 32v384h480v-384h-480zM448 368h-384v-288h384v288zM376 128h-240v192h240v-192z" />
<glyph unicode="&#xe624;" d="M464 32h-416c-17.664 0-32 14.304-32 32v320c0 17.664 14.336 32 32 32h416c17.696 0 32-14.336 32-32v-320c0-17.696-14.304-32-32-32zM120 352c-22.080 0-40-17.92-40-40s17.92-40 40-40 40 17.92 40 40-17.92 40-40 40zM336 288l-80-112-48 64-80-128h320l-112 176z" />
<glyph unicode="&#xe625;" d="M410.464-16h-308.928c-18.976 0-34.336 15.328-34.336 34.272v411.456c0 18.944 15.36 34.272 34.336 34.272h188.768v-120c0-18.944 15.36-34.272 34.336-34.272h120.16v-291.424c0-18.976-15.36-34.304-34.336-34.304zM307.488 361.152v102.848h1.088l136.224-136.032v-1.12h-103.008c-18.944 0-34.304 15.36-34.304 34.304z" />
<glyph unicode="&#xe626;" d="M128 256h256c19.2 0 32-12.8 32-32v0c0-19.2-12.8-32-32-32h-256c-19.2 0-32 12.8-32 32v0c0 19.2 12.8 32 32 32z" />
<glyph unicode="&#xe627;" d="M380.8 320c3.2-3.2 3.2-9.6 0-12.8l-76.8-76.8c-3.2-3.2-3.2-9.6 0-12.8l76.8-76.8c3.2-3.2 3.2-9.6 0-12.8l-28.8-28.8c-3.2-3.2-9.6-3.2-12.8 0l-76.8 76.8c-3.2 3.2-9.6 3.2-12.8 0l-76.8-76.8c-3.2-3.2-9.6-3.2-12.8 0l-28.8 28.8c-3.2 3.2-3.2 9.6 0 12.8l76.8 76.8c3.2 3.2 3.2 9.6 0 12.8l-76.8 76.8c-3.2 3.2-3.2 9.6 0 12.8l28.8 28.8c3.2 3.2 9.6 3.2 12.8 0l76.8-76.8c3.2-3.2 9.6-3.2 12.8 0l76.8 76.8c3.2 3.2 9.6 3.2 12.8 0l28.8-28.8z" />
<glyph unicode="&#xe628;" d="M448 192h-160v-160c0-19.2-12.8-32-32-32v0c-19.2 0-32 12.8-32 32v160h-160c-19.2 0-32 12.8-32 32v0c0 19.2 12.8 32 32 32h160v160c0 19.2 12.8 32 32 32v0c19.2 0 32-12.8 32-32v-160h160c19.2 0 32-12.8 32-32v0c0-19.2-12.8-32-32-32z" />
</font>
</defs>
</svg>
